<?xml version="1.0" standalone="no"?>
<!DOCTYPE svg PUBLIC "-//W3C//DTD SVG 20010904//EN"
 "http://www.w3.org/TR/2001/REC-SVG-20010904/DTD/svg10.dtd">
<svg version="1.0" xmlns="http://www.w3.org/2000/svg"
 width="512.000000pt" height="512.000000pt" viewBox="0 0 512.000000 512.000000"
 preserveAspectRatio="xMidYMid meet">

<g transform="translate(0.000000,512.000000) scale(0.100000,-0.100000)"
fill="#000000" stroke="none">
<path d="M2330 5110 c-494 -48 -950 -230 -1350 -538 -195 -150 -448 -432 -594
-662 -63 -99 -186 -351 -230 -471 -51 -139 -103 -344 -128 -504 -31 -200 -31
-550 0 -750 43 -273 114 -500 237 -750 131 -267 269 -460 485 -676 210 -210
387 -342 635 -470 563 -292 1211 -365 1824 -204 180 48 297 92 476 180 269
132 460 269 681 489 220 221 357 412 489 681 88 179 132 296 180 476 63 240
78 371 78 649 0 278 -15 409 -78 649 -48 180 -92 297 -180 476 -132 269 -269
460 -489 681 -221 220 -412 357 -681 489 -246 121 -474 193 -740 235 -147 23
-475 34 -615 20z m468 -271 c262 -28 535 -108 772 -225 460 -228 816 -584
1044 -1044 315 -636 315 -1385 1 -2018 -119 -239 -230 -396 -415 -586 -196
-202 -382 -337 -630 -460 -636 -315 -1384 -315 -2020 0 -248 123 -434 258
-630 460 -185 190 -296 347 -415 586 -395 796 -286 1754 278 2453 78 97 246
264 342 340 332 266 764 446 1180 493 114 13 379 14 493 1z"/>
<path d="M1010 3685 c-7 -9 -12 -30 -12 -48 1 -18 141 -499 311 -1070 237
-798 313 -1043 331 -1062 33 -35 78 -45 206 -45 142 0 169 6 207 44 27 27 53
101 204 576 95 300 201 632 235 739 l62 194 14 -34 c8 -19 115 -351 239 -739
241 -758 237 -749 312 -770 47 -13 266 -13 312 0 19 6 46 21 59 35 17 18 87
244 301 977 383 1309 344 1164 325 1193 l-16 25 -195 0 c-203 0 -227 -4 -257
-45 -10 -12 -96 -331 -193 -711 -148 -579 -195 -747 -195 -701 0 16 -431 1371
-445 1397 -27 53 -56 60 -246 60 -153 0 -175 -2 -204 -20 -17 -11 -36 -30 -42
-42 -6 -13 -103 -306 -216 -653 -254 -779 -232 -717 -244 -685 -6 14 -83 320
-173 680 -157 630 -165 656 -196 688 l-32 32 -220 0 c-186 0 -222 -2 -232 -15z"/>
</g>
</svg>
